<svg xmlns="http://www.w3.org/2000/svg" xmlns:xlink="http://www.w3.org/1999/xlink" width="31.759" height="31.76" viewBox="0 0 31.759 31.76"><defs><style>.a{fill:url(#a);}.b{fill:url(#b);}</style><linearGradient id="a" x1="0.895" y1="0.105" x2="0.075" y2="0.925" gradientUnits="objectBoundingBox"><stop offset="0" stop-color="#3a2ebd"/><stop offset="1" stop-color="#3f66ff"/></linearGradient><linearGradient id="b" x1="1.966" y1="-0.22" x2="-0.988" y2="1.322" xlink:href="#a"/></defs><g transform="translate(-321.474 -902)"><path class="a" d="M343.507,933.76H331.2a9.737,9.737,0,0,1-9.726-9.727V911.727A9.737,9.737,0,0,1,331.2,902h12.307a9.737,9.737,0,0,1,9.726,9.727v12.306A9.737,9.737,0,0,1,343.507,933.76ZM331.2,903.18a8.556,8.556,0,0,0-8.547,8.547v12.306a8.556,8.556,0,0,0,8.547,8.547h12.307a8.556,8.556,0,0,0,8.547-8.547V911.727a8.556,8.556,0,0,0-8.547-8.547Z"/><path class="b" d="M341.592,909.495l-2.472-.056a3.625,3.625,0,0,0-3.7,3.623v2.345h-2.3a.17.17,0,0,0-.171.171v2.946a.17.17,0,0,0,.171.171h2.3v7.455a.171.171,0,0,0,.171.171h3.042a.17.17,0,0,0,.171-.171V918.7h2.316a.172.172,0,0,0,.17-.149l.383-2.946a.171.171,0,0,0-.17-.193h-2.7v-1.49a1.707,1.707,0,0,1,.314-1.137.93.93,0,0,1,.728-.284h1.747a.17.17,0,0,0,.171-.171v-2.66A.171.171,0,0,0,341.592,909.495Z"/></g></svg>