<svg xmlns="http://www.w3.org/2000/svg" xmlns:xlink="http://www.w3.org/1999/xlink" width="31.76" height="31.76" viewBox="0 0 31.76 31.76"><defs><style>.a{fill:url(#a);}.b{fill:url(#b);}</style><linearGradient id="a" x1="1.084" y1="-0.084" x2="-0.163" y2="1.163" gradientUnits="objectBoundingBox"><stop offset="0" stop-color="#00efff"/><stop offset="1" stop-color="#3f66ff"/></linearGradient><linearGradient id="b" x1="1.89" y1="-0.58" x2="-0.867" y2="1.919" xlink:href="#a"/></defs><g transform="translate(-452.52 -902)"><path class="a" d="M474.554,933.76H462.247a9.738,9.738,0,0,1-9.727-9.727V911.727A9.738,9.738,0,0,1,462.247,902h12.307a9.737,9.737,0,0,1,9.726,9.727v12.306A9.737,9.737,0,0,1,474.554,933.76Zm-12.307-30.58a8.556,8.556,0,0,0-8.547,8.547v12.306a8.556,8.556,0,0,0,8.547,8.547h12.307a8.556,8.556,0,0,0,8.546-8.547V911.727a8.556,8.556,0,0,0-8.546-8.547Z"/><path class="b" d="M473.7,910.123l-11.851,6.842a1.262,1.262,0,0,0,.216,2.284l3.141,1.094,7.109-5.572-4.93,6.33v3.678a.44.44,0,0,0,.744.319l1.852-1.768,2.355,2.147a1.262,1.262,0,0,0,2.107-.824l1.144-13.33A1.261,1.261,0,0,0,473.7,910.123Z"/></g></svg>