<svg xmlns="http://www.w3.org/2000/svg" xmlns:xlink="http://www.w3.org/1999/xlink" width="31.76" height="31.76" viewBox="0 0 31.76 31.76"><defs><style>.a{fill:url(#a);}.b{fill:url(#b);}</style><linearGradient id="a" x1="0.947" y1="0.053" x2="0.045" y2="0.955" gradientUnits="objectBoundingBox"><stop offset="0" stop-color="#00e9ff"/><stop offset="1" stop-color="#23afff"/></linearGradient><linearGradient id="b" x1="1.217" y1="-0.54" x2="-0.404" y2="1.354" xlink:href="#a"/></defs><g transform="translate(-365.096 -902)"><path class="a" d="M387.13,933.76H374.823a9.738,9.738,0,0,1-9.727-9.727V911.727A9.738,9.738,0,0,1,374.823,902H387.13a9.737,9.737,0,0,1,9.726,9.727v12.306A9.737,9.737,0,0,1,387.13,933.76Zm-12.307-30.58a8.556,8.556,0,0,0-8.547,8.547v12.306a8.556,8.556,0,0,0,8.547,8.547H387.13a8.557,8.557,0,0,0,8.547-8.547V911.727a8.557,8.557,0,0,0-8.547-8.547Z"/><path class="b" d="M387.947,912.93a4.37,4.37,0,0,0,1.385-1.882,7.377,7.377,0,0,1-2.241.666,3.7,3.7,0,0,0-6.4,3.459l-.028,0c-5.474-.376-7.7-3.888-7.7-3.888a4.5,4.5,0,0,0,.844,4.972,2.2,2.2,0,0,1-1.253-.319s-.457,2.371,2.53,3.649a4.117,4.117,0,0,1-1.3.142,3.993,3.993,0,0,0,3.381,2.526s-1.118,1.414-5.018,1.688a10.4,10.4,0,0,0,15.805-8.457l1.865-2.981Z"/></g></svg>