<svg xmlns="http://www.w3.org/2000/svg" xmlns:xlink="http://www.w3.org/1999/xlink" width="31.76" height="31.76" viewBox="0 0 31.76 31.76"><defs><style>.a{fill:url(#a);}.b{fill:url(#b);}</style><linearGradient id="a" x1="0.894" y1="0.106" x2="0.136" y2="0.864" gradientUnits="objectBoundingBox"><stop offset="0" stop-color="#ff0b5a"/><stop offset="1" stop-color="#ae0332"/></linearGradient><linearGradient id="b" x1="1.216" y1="-0.455" x2="-0.161" y2="1.382" xlink:href="#a"/></defs><g transform="translate(-496.054 -902)"><path class="a" d="M518.087,933.76H505.781a9.737,9.737,0,0,1-9.727-9.727V911.727A9.737,9.737,0,0,1,505.781,902h12.306a9.738,9.738,0,0,1,9.727,9.727v12.306A9.738,9.738,0,0,1,518.087,933.76Zm-12.306-30.58a8.556,8.556,0,0,0-8.547,8.547v12.306a8.556,8.556,0,0,0,8.547,8.547h12.306a8.556,8.556,0,0,0,8.547-8.547V911.727a8.556,8.556,0,0,0-8.547-8.547Z"/><path class="b" d="M517.229,911.324H506.638a3.449,3.449,0,0,0-3.448,3.449v6.214a3.449,3.449,0,0,0,3.448,3.449h10.591a3.449,3.449,0,0,0,3.449-3.449v-6.214A3.449,3.449,0,0,0,517.229,911.324Zm-7.449,9.432V915a.585.585,0,0,1,.885-.5l4.807,2.876a.585.585,0,0,1,0,1l-4.807,2.876A.585.585,0,0,1,509.78,920.756Z"/></g></svg>